<?xml version="1.0" encoding="UTF-8"?>
<svg id="katman_1" xmlns="http://www.w3.org/2000/svg" version="1.1" viewBox="0 0 1065.7 167.5">
  <!-- Generator: Adobe Illustrator 29.2.1, SVG Export Plug-In . SVG Version: 2.1.0 Build 116)  -->
  <defs>
    <style>
      .st0 {
        isolation: isolate;
      }

      .st1 {
        fill: #2563eb;
      }
    </style>
  </defs>
  <path d="M898.1,166.5V55.8h21.2v13.5h1c1-2.1,2.4-4.3,4.3-6.6,1.8-2.2,4.3-4.1,7.3-5.7,3-1.5,6.8-2.3,11.4-2.3s11.4,1.5,16.4,4.6,8.9,7.7,11.8,13.9c3,6.2,4.4,13.8,4.4,23s-1.4,16.5-4.3,22.7c-2.9,6.2-6.8,10.8-11.8,14.1-4.9,3.2-10.5,4.8-16.7,4.8s-8.1-.7-11.1-2.2-5.5-3.4-7.4-5.5c-1.9-2.2-3.4-4.3-4.3-6.5h-.7v43h-21.6.1ZM936.6,120.3c3.7,0,6.9-1.1,9.5-3.1s4.5-4.9,5.8-8.5c1.3-3.7,2-7.8,2-12.6s-.7-8.9-2-12.5-3.3-6.4-5.8-8.5c-2.6-2-5.7-3.1-9.5-3.1s-6.8,1-9.5,3c-2.6,2-4.5,4.8-5.9,8.3-1.3,3.5-2,7.8-2,12.7s.7,9.1,2,12.7c1.4,3.6,3.4,6.4,5.9,8.5s5.7,3,9.4,3h0Z"/>
  <g id="katman_11">
    <g class="st0">
      <g class="st0">
        <path d="M271.1,136.6V29.3h24.5l33.9,54.3c1.7,2.8,3.5,5.8,5.3,9.1s3.6,6.9,5.5,10.9,3.7,8.5,5.5,13.5h-2.2c-.3-4-.7-8.2-.9-12.7s-.5-8.8-.7-12.9c-.2-4.1-.3-7.6-.3-10.5V29.3h22.5v107.4h-24.6l-30.8-49.3c-2.2-3.7-4.3-7.3-6.2-10.8-1.9-3.5-3.9-7.3-6-11.5s-4.6-9.3-7.4-15.1h2.8c.3,5.2.6,10.2.9,14.9.3,4.7.5,9.1.7,12.9.2,3.9.3,7,.3,9.5v49.4h-22.5Z"/>
      </g>
      <g class="st0">
        <path d="M419.1,138.2c-8.1,0-15-1.7-21-5.2s-10.4-8.3-13.7-14.5c-3.2-6.2-4.8-13.5-4.8-21.8s1.6-15.6,4.8-21.9c3.2-6.2,7.8-11,13.7-14.5s12.9-5.2,21-5.2,15.1,1.7,21,5.2c5.9,3.5,10.4,8.3,13.6,14.5,3.2,6.2,4.8,13.5,4.8,21.9s-1.6,15.5-4.8,21.8c-3.2,6.2-7.8,11-13.6,14.5-5.9,3.5-12.9,5.2-21,5.2ZM419.1,121.3c3.8,0,7-1.1,9.7-3.2,2.6-2.2,4.5-5.1,5.8-8.8s2-7.9,2-12.6-.7-9-2-12.7-3.2-6.6-5.8-8.7c-2.6-2.1-5.8-3.2-9.7-3.2s-7,1.1-9.6,3.2c-2.6,2.1-4.5,5-5.8,8.7-1.3,3.7-2,8-2,12.7s.7,8.9,2,12.6c1.3,3.7,3.2,6.6,5.8,8.8,2.6,2.2,5.8,3.2,9.6,3.2Z"/>
      </g>
      <g class="st0">
        <path d="M493.6,136.6l-29.7-80.6h23l13.5,41.8c1.6,5.3,3.1,10.5,4.3,15.8,1.2,5.3,2.5,10.8,3.8,16.6h-4.6c1.2-5.7,2.5-11.2,3.7-16.6s2.6-10.6,4.3-15.8l13.4-41.8h22.7l-29.8,80.6h-24.6,0Z"/>
      </g>
      <g class="st0">
        <path d="M580.4,138.2c-5.1,0-9.7-.9-13.7-2.7s-7.2-4.5-9.6-8.1c-2.3-3.5-3.5-8-3.5-13.3s.9-8.2,2.5-11.2,3.9-5.5,6.8-7.3,6.1-3.2,9.7-4.2,7.4-1.6,11.4-2c4.7-.5,8.4-.9,11.3-1.3,2.8-.4,4.9-1.1,6.2-2s2-2.2,2-3.9v-.3c0-2.3-.5-4.3-1.4-5.8s-2.4-2.8-4.3-3.6c-1.9-.9-4.2-1.2-6.9-1.2s-5.2.4-7.3,1.2c-2,.9-3.7,2-5.1,3.4s-2.2,3-2.9,4.7l-19.8-3.2c1.4-4.7,3.7-8.7,6.9-12s7.2-5.8,12-7.5c4.8-1.7,10.2-2.6,16.2-2.6s8.5.5,12.6,1.6c4.1,1.1,7.8,2.6,11,4.8,3.2,2.2,5.8,5,7.7,8.5,1.9,3.5,2.8,7.6,2.8,12.5v54.3h-20.4v-11.2h-.7c-1.3,2.5-3,4.7-5.2,6.6s-4.8,3.4-7.8,4.5c-3,1.1-6.6,1.6-10.6,1.6h.1ZM586.6,123c3.4,0,6.4-.7,9-2,2.6-1.3,4.6-3.2,6-5.5s2.2-4.9,2.2-7.7v-8.7c-.7.5-1.6.9-2.9,1.3s-2.8.7-4.3,1-3.2.5-4.7.8c-1.5.3-2.9.5-4.1.6-2.6.4-5,1-7,1.9-2,.9-3.5,2-4.7,3.4-1.1,1.4-1.6,3.2-1.6,5.5s.5,3.8,1.6,5.2c1.1,1.4,2.5,2.5,4.3,3.2s3.9,1.1,6.2,1.1h-.1Z"/>
        <path d="M691.7,138.1c-10.1,0-18.9-2.2-26.4-6.6-7.6-4.5-13.5-10.8-17.7-19s-6.4-18-6.4-29.3,2.2-21.6,6.6-29.8,10.4-14.5,17.9-18.9,16-6.6,25.4-6.6,11.7.9,16.9,2.6c5.2,1.8,9.9,4.3,13.9,7.4,4.1,3.2,7.4,7,9.9,11.4s4.2,9.3,5,14.6h-22.3c-.8-2.6-1.8-4.9-3.2-7s-3-3.8-5-5.2c-2-1.4-4.1-2.6-6.6-3.3-2.5-.7-5.3-1.1-8.2-1.1-5.5,0-10.4,1.4-14.7,4.1-4.2,2.8-7.5,6.8-9.9,12.1-2.4,5.3-3.5,11.7-3.5,19.3s1.2,14.1,3.5,19.3c2.3,5.3,5.6,9.3,9.9,12.2,4.2,2.8,9.2,4.2,15,4.2s9.7-.9,13.3-2.8c3.7-1.9,6.6-4.5,8.5-8s3-7.6,3-12.2l4.6.7h-27.9v-16.7h44.7v13.4c0,9.4-2,17.5-6,24.2-4,6.8-9.5,12-16.4,15.6-7,3.6-14.9,5.5-23.9,5.5h0Z"/>
      </g>
      <g class="st0">
        <path d="M754.4,136.6V56.1h20.9v14.1h.9c1.5-5,3.9-8.7,7.4-11.3s7.5-3.8,12-3.8,2.3,0,3.6.2c1.3.1,2.4.3,3.4.5v19.3c-1-.3-2.4-.6-4.2-.8s-3.5-.3-5.2-.3c-3.3,0-6.2.7-8.9,2.1-2.6,1.4-4.7,3.4-6.2,5.9-1.4,2.5-2.2,5.5-2.2,8.8v45.8h-21.6Z"/>
      </g>
      <g class="st0">
        <path d="M834.9,138.2c-5.1,0-9.7-.9-13.7-2.7-4.1-1.8-7.2-4.5-9.6-8.1-2.3-3.5-3.5-8-3.5-13.3s.9-8.2,2.5-11.2,3.9-5.5,6.8-7.3,6.1-3.2,9.7-4.2,7.4-1.6,11.4-2c4.7-.5,8.4-.9,11.3-1.3,2.8-.4,4.9-1.1,6.2-2s2-2.2,2-3.9v-.3c0-2.3-.5-4.3-1.4-5.8s-2.4-2.8-4.3-3.6c-1.9-.9-4.2-1.2-6.9-1.2s-5.2.4-7.3,1.2c-2,.9-3.7,2-5.1,3.4s-2.2,3-2.9,4.7l-19.8-3.2c1.4-4.7,3.7-8.7,6.9-12s7.2-5.8,12-7.5c4.8-1.7,10.2-2.6,16.2-2.6s8.5.5,12.6,1.6c4.1,1.1,7.8,2.6,11,4.8,3.2,2.2,5.8,5,7.7,8.5,1.9,3.5,2.8,7.6,2.8,12.5v54.3h-20.4v-11.2h-.7c-1.3,2.5-3,4.7-5.2,6.6s-4.8,3.4-7.8,4.5c-3,1.1-6.6,1.6-10.6,1.6h.1ZM841.1,123c3.4,0,6.4-.7,9-2,2.6-1.3,4.6-3.2,6-5.5s2.2-4.9,2.2-7.7v-8.7c-.7.5-1.6.9-2.9,1.3s-2.8.7-4.3,1-3.2.5-4.7.8c-1.5.3-2.9.5-4.1.6-2.6.4-5,1-7,1.9-2,.9-3.5,2-4.7,3.4-1.1,1.4-1.6,3.2-1.6,5.5s.5,3.8,1.6,5.2c1.1,1.4,2.5,2.5,4.3,3.2,1.8.7,3.9,1.1,6.2,1.1h-.1Z"/>
        <path d="M1012.8,90.1v46.6h-21.6V29.3h21.2v46.9h-1.7c2.1-6.7,5.3-11.9,9.6-15.6,4.3-3.7,9.9-5.5,16.7-5.5s10.4,1.2,14.6,3.6c4.1,2.4,7.4,5.9,9.7,10.4s3.5,9.9,3.5,16.2v51.3h-21.7v-47.5c0-5-1.3-8.9-3.9-11.8-2.6-2.8-6.1-4.3-10.7-4.3s-5.7.7-8.1,2c-2.4,1.3-4.2,3.2-5.5,5.7s-2,5.5-2,9.1h0Z"/>
      </g>
    </g>
  </g>
  <g id="katman_12">
    <path class="st1" d="M.8,165.1h43.9v-85.8l35.9,52.8s20.7,33.2,69.4,33.2h40.8V56.7h-44.3v64.2s-20.9,3.1-34-19.7L44.7.9H.8v164.2Z"/>
    <path class="st1" d="M81.6,33.8l27.9,41.5s5.6-30,37.1-30h44.4V1.5h-51.1s-35.6,1.8-58.2,32.2h0Z"/>
  </g>
</svg>